# xmcd
#
# Track frame offsets: 
#        150
#        15895
#        32592
#        44715
#        62155
#        76015
#        92535
#        108955
#        125827
#
# Disc length: 1938 seconds
#
# Revision: 10
# Processed by: cddbd v1.5.2PL0 Copyright (c) Steve Scherf et al.
# Submitted via: ExactAudioCopyFreeDBPlugin 1.0
#
DISCID=66079009
DTITLE=Kenny Rogers and Dolly Parton - Once Upon A Christmas
DYEAR=1997
DGENRE=Holiday
TTITLE0=I Believe in Santa Claus
TTITLE1=Winter Wonderland - Sleigh Ride
TTITLE2=With Bells On
TTITLE3=Christmas Without You
TTITLE4=White Christmas
TTITLE5=A Christmas to Remember
TTITLE6=Hard Candy Christmas
TTITLE7=The Greatest Gift of All
TTITLE8=Once Upon a Christmas
EXTD=
EXTT0=
EXTT1=
EXTT2=
EXTT3=
EXTT4=
EXTT5=
EXTT6=
EXTT7=
EXTT8=
PLAYORDER=
